<svg width="183" height="41" viewBox="0 0 183 41" fill="none" xmlns="http://www.w3.org/2000/svg">
<path d="M5.355 7.5V22.97L16.66 7.5L16.94 7.745L10.675 16.285L19.985 32H16.73L8.89 18.735L5.355 23.6V32H2.45V7.5H5.355Z" fill="#8C1111"/>
<path d="M23.7669 23.46C23.7669 26.3533 24.2686 28.4767 25.2719 29.83C26.2986 31.1833 27.6402 31.86 29.2969 31.86C31.6302 31.86 33.7069 31.51 35.5269 30.81L35.6319 31.055C33.7652 31.7783 31.6536 32.14 29.2969 32.14C26.9636 32.14 25.0619 31.44 23.5919 30.04C22.1219 28.64 21.3869 26.4817 21.3869 23.565C21.3869 20.6483 22.1569 18.385 23.6969 16.775C25.2369 15.165 27.1969 14.36 29.5769 14.36C31.4902 14.36 33.1002 14.9317 34.4069 16.075C35.7136 17.2183 36.3669 18.91 36.3669 21.15C36.3669 21.2667 36.3669 21.3833 36.3669 21.5H23.8719C23.8019 22.13 23.7669 22.7833 23.7669 23.46ZM33.9869 21.22C33.9636 18.98 33.5319 17.3233 32.6919 16.25C31.8519 15.1767 30.7669 14.64 29.4369 14.64C28.1069 14.64 26.9169 15.2233 25.8669 16.39C24.8402 17.5567 24.1869 19.1667 23.9069 21.22H33.9869ZM41.0132 32C40.0565 32 39.3215 31.79 38.8082 31.37C38.3182 30.95 38.0615 30.53 38.0382 30.11L38.0032 29.515V14.5H40.4532V29.515C40.4532 30.1917 40.5815 30.7167 40.8382 31.09C41.1182 31.44 41.3865 31.6267 41.6432 31.65L42.0632 31.72H43.1482V32H41.0132ZM38.2132 10.58C37.9332 10.3 37.7932 9.95 37.7932 9.53C37.7932 9.11 37.9332 8.76 38.2132 8.48C38.4932 8.17666 38.8432 8.025 39.2632 8.025C39.6832 8.025 40.0332 8.17666 40.3132 8.48C40.6165 8.76 40.7682 9.11 40.7682 9.53C40.7682 9.95 40.6165 10.3 40.3132 10.58C40.0332 10.86 39.6832 11 39.2632 11C38.8432 11 38.4932 10.86 38.2132 10.58ZM50.0489 32C47.9956 32 46.7006 31.4633 46.1639 30.39C46.0472 30.1567 45.9889 29.9467 45.9889 29.76V5.785H48.4389V29.515C48.4389 30.1917 48.5672 30.7167 48.8239 31.09C49.1039 31.44 49.3839 31.6267 49.6639 31.65L50.0489 31.72H51.1339V32H50.0489ZM67.1943 32C65.6076 32 64.5226 31.6967 63.9393 31.09C63.4026 30.5767 63.1343 30.1333 63.1343 29.76V29.025C61.9909 31.1017 60.1593 32.14 57.6393 32.14C54.6993 32.14 53.0309 30.81 52.6343 28.15C52.5876 27.87 52.5643 27.59 52.5643 27.31C52.5643 27.0067 52.6109 26.68 52.7043 26.33C52.7976 25.98 53.0659 25.595 53.5093 25.175C54.3959 24.335 56.3443 23.8217 59.3543 23.635C60.1009 23.565 60.7893 23.53 61.4193 23.53C62.0493 23.53 62.6209 23.5533 63.1343 23.6V17.79C63.0876 17.7667 63.0876 17.6617 63.1343 17.475C63.1809 17.265 63.1343 17.0083 62.9943 16.705C62.8776 16.3783 62.7143 16.0633 62.5043 15.76C62.2943 15.4567 61.9209 15.2 61.3843 14.99C60.8476 14.7567 60.1476 14.64 59.2843 14.64C58.4209 14.64 57.4059 14.8033 56.2393 15.13C55.0959 15.4333 54.2559 15.7367 53.7193 16.04L53.5793 15.795C55.6559 14.8383 57.7676 14.36 59.9143 14.36C62.3176 14.36 63.9043 14.7917 64.6743 15.655C65.2809 16.3317 65.5843 17.0433 65.5843 17.79V29.515C65.5843 30.1917 65.7126 30.7167 65.9693 31.09C66.2493 31.44 66.5293 31.6267 66.8093 31.65L67.1943 31.72H68.2793V32H67.1943ZM58.1993 31.86C59.4359 31.86 60.5443 31.44 61.5243 30.6C62.5276 29.7367 63.0643 28.9083 63.1343 28.115V23.88C62.5043 23.8333 61.8626 23.81 61.2093 23.81C60.5793 23.81 59.9493 23.845 59.3193 23.915C57.5459 24.125 56.3909 24.5217 55.8543 25.105C55.3176 25.6883 55.0493 26.4933 55.0493 27.52C55.0493 27.7067 55.0609 27.9167 55.0843 28.15C55.2943 30.6233 56.3326 31.86 58.1993 31.86Z" fill="#192E40"/>
<path d="M74.47 32H74.05L84.515 7.5L84.9 7.325L93.72 32H90.745L88.015 24.3H77.795L74.47 32ZM83.43 11.28L77.935 23.95H87.91L83.43 11.28Z" fill="#8C1111"/>
<path d="M102.166 16.005V15.27C101.116 15.69 100.159 16.5417 99.2957 17.825C98.4323 19.085 97.9773 20.275 97.9307 21.395V32H95.4807V14.5H97.9307V20.065C98.304 18.7117 99.0157 17.44 100.066 16.25C101.116 15.0367 102.306 14.4067 103.636 14.36H103.776C104.242 14.36 104.627 14.5233 104.931 14.85C105.257 15.1533 105.421 15.5383 105.421 16.005C105.421 16.4717 105.257 16.8567 104.931 17.16C104.627 17.4633 104.242 17.615 103.776 17.615C103.309 17.615 102.924 17.4633 102.621 17.16C102.317 16.8567 102.166 16.4717 102.166 16.005ZM114.839 14.64C113.183 14.64 111.794 15.4333 110.674 17.02C109.578 18.6067 109.029 20.8 109.029 23.6C109.029 26.4 109.531 28.4767 110.534 29.83C111.561 31.1833 112.903 31.86 114.559 31.86C116.636 31.86 118.479 31.51 120.089 30.81L120.194 31.055C118.538 31.7783 116.601 32.14 114.384 32.14C112.168 32.14 110.324 31.44 108.854 30.04C107.384 28.64 106.649 26.4817 106.649 23.565C106.649 20.6483 107.419 18.385 108.959 16.775C110.499 15.165 112.459 14.36 114.839 14.36C116.169 14.36 117.394 14.6633 118.514 15.27C119.658 15.8767 120.498 16.7983 121.034 18.035H118.794C118.444 16.8917 117.908 16.04 117.184 15.48C116.484 14.92 115.703 14.64 114.839 14.64ZM137.263 32C135.676 32 134.591 31.6967 134.008 31.09C133.471 30.5767 133.203 30.1333 133.203 29.76V29.025C132.06 31.1017 130.228 32.14 127.708 32.14C124.768 32.14 123.1 30.81 122.703 28.15C122.656 27.87 122.633 27.59 122.633 27.31C122.633 27.0067 122.68 26.68 122.773 26.33C122.866 25.98 123.135 25.595 123.578 25.175C124.465 24.335 126.413 23.8217 129.423 23.635C130.17 23.565 130.858 23.53 131.488 23.53C132.118 23.53 132.69 23.5533 133.203 23.6V17.79C133.156 17.7667 133.156 17.6617 133.203 17.475C133.25 17.265 133.203 17.0083 133.063 16.705C132.946 16.3783 132.783 16.0633 132.573 15.76C132.363 15.4567 131.99 15.2 131.453 14.99C130.916 14.7567 130.216 14.64 129.353 14.64C128.49 14.64 127.475 14.8033 126.308 15.13C125.165 15.4333 124.325 15.7367 123.788 16.04L123.648 15.795C125.725 14.8383 127.836 14.36 129.983 14.36C132.386 14.36 133.973 14.7917 134.743 15.655C135.35 16.3317 135.653 17.0433 135.653 17.79V29.515C135.653 30.1917 135.781 30.7167 136.038 31.09C136.318 31.44 136.598 31.6267 136.878 31.65L137.263 31.72H138.348V32H137.263ZM128.268 31.86C129.505 31.86 130.613 31.44 131.593 30.6C132.596 29.7367 133.133 28.9083 133.203 28.115V23.88C132.573 23.8333 131.931 23.81 131.278 23.81C130.648 23.81 130.018 23.845 129.388 23.915C127.615 24.125 126.46 24.5217 125.923 25.105C125.386 25.6883 125.118 26.4933 125.118 27.52C125.118 27.7067 125.13 27.9167 125.153 28.15C125.363 30.6233 126.401 31.86 128.268 31.86ZM154.449 32C153.492 32 152.757 31.79 152.244 31.37C151.754 30.95 151.497 30.53 151.474 30.11L151.439 29.515V18.525C151.439 16.6817 150.96 15.5033 150.004 14.99C149.514 14.7567 148.907 14.64 148.184 14.64C146.69 14.64 145.349 15.235 144.159 16.425C142.969 17.5917 142.374 18.6417 142.374 19.575V32H139.924V14.5H142.374V18.49C142.77 17.4867 143.505 16.5533 144.579 15.69C145.652 14.8033 146.83 14.36 148.114 14.36C149.397 14.36 150.435 14.4883 151.229 14.745C152.045 14.9783 152.64 15.3167 153.014 15.76C153.597 16.4833 153.889 17.4167 153.889 18.56V29.515C153.889 30.1917 154.017 30.7167 154.274 31.09C154.554 31.44 154.834 31.6267 155.114 31.65L155.499 31.72H156.584V32H154.449ZM154.497 40.085L154.602 39.805C155.722 40.2483 156.818 40.47 157.892 40.47C158.988 40.47 159.7 40.1317 160.027 39.455C160.377 38.7783 160.552 37.6817 160.552 36.165V14.5H163.002V36.13C163.002 37.9733 162.628 39.1983 161.882 39.805C161.135 40.435 160.003 40.75 158.487 40.75C156.993 40.75 155.663 40.5283 154.497 40.085ZM160.727 10.58C160.447 10.3 160.307 9.95 160.307 9.53C160.307 9.11 160.447 8.76 160.727 8.48C161.007 8.17666 161.357 8.025 161.777 8.025C162.197 8.025 162.547 8.17666 162.827 8.48C163.13 8.76 163.282 9.11 163.282 9.53C163.282 9.95 163.13 10.3 162.827 10.58C162.547 10.86 162.197 11 161.777 11C161.357 11 161.007 10.86 160.727 10.58ZM172.641 32.14C170.191 32.14 168.196 31.44 166.656 30.04C165.116 28.64 164.346 26.4817 164.346 23.565C164.346 20.6483 165.139 18.385 166.726 16.775C168.336 15.165 170.366 14.36 172.816 14.36C175.289 14.36 177.296 15.06 178.836 16.46C180.376 17.86 181.146 20.0183 181.146 22.935C181.146 25.8517 180.341 28.115 178.731 29.725C177.144 31.335 175.114 32.14 172.641 32.14ZM172.886 14.64C171.113 14.64 169.643 15.4333 168.476 17.02C167.309 18.5833 166.726 20.7767 166.726 23.6C166.726 26.4 167.263 28.4767 168.336 29.83C169.409 31.1833 170.833 31.86 172.606 31.86C174.379 31.86 175.849 31.0783 177.016 29.515C178.183 27.9283 178.766 25.735 178.766 22.935C178.766 20.1117 178.229 18.0233 177.156 16.67C176.083 15.3167 174.659 14.64 172.886 14.64Z" fill="#192E40"/>
</svg>
